# xmcd
#
# Track frame offsets:
#	150
#	15385
#	32007
#	43877
#	57115
#	78025
#	90892
#	108995
#	124277
#	150442
#	166180
#	182222
#	193485
#	204690
#	218840
#	231315
#	242797
#	253370
#	265000
#
# Disc length: 3924 seconds
#
# Revision: 4
# Processed by: cddbd v1.5PL3 Copyright (c) Steve Scherf et al.
# Submitted via: dBpowerAMP V4.0
#
DISCID=010f5213
DTITLE=喜納昌吉＆チャンプルーズ - 喜納昌吉＆チャンプルーズ　ベスト撰集
DYEAR=2001
DGENRE=Other
TTITLE0=ハイサイおじさん
TTITLE1=うわき節
TTITLE2=レッドおじさん
TTITLE3=番長小
TTITLE4=東崎
TTITLE5=すくちな者
TTITLE6=いちむし小ぬユンタク
TTITLE7=馬車小引んちゃー
TTITLE8=島小
TTITLE9=東京讃美歌
TTITLE10=じんじん
TTITLE11=アキサミヨー
TTITLE12=花のカジマヤ
TTITLE13=ニライカナイ〜遙かなる国〜
TTITLE14=イヤーホイ
TTITLE15=ミミチリ坊主〜ダンジュ カリユシ
TTITLE16=クレージー カチャーシー
TTITLE17=ヤンバル
TTITLE18=すべての人の心に花を
EXTD=
EXTT0=
EXTT1=
EXTT2=
EXTT3=
EXTT4=
EXTT5=
EXTT6=
EXTT7=
EXTT8=
EXTT9=
EXTT10=
EXTT11=
EXTT12=
EXTT13=
EXTT14=
EXTT15=
EXTT16=
EXTT17=
EXTT18=
PLAYORDER=
